<?xml version="1.0" encoding="UTF-8"?>
<svg width="100px" height="93px" viewBox="0 0 100 93" version="1.1" xmlns="http://www.w3.org/2000/svg" xmlns:xlink="http://www.w3.org/1999/xlink">
    <!-- Generator: Sketch 53.2 (72643) - https://sketchapp.com -->
    <title>buyback</title>
    <desc>Created with Sketch.</desc>
    <g id="buyback" stroke="none" stroke-width="1" fill="none" fill-rule="evenodd">
        <g id="shopping" fill="#FFFFFF">
            <path d="M44.9935914,61.7912293 C45.7557678,61.027527 45.7557678,59.790802 44.9935914,59.0270996 C44.2298889,58.2656859 42.993927,58.2656859 42.2302246,59.0270996 C41.468048,59.790802 41.468048,61.027527 42.2302246,61.7912293 C42.993927,62.5526428 44.2298889,62.5526428 44.9935914,61.7912293 L44.9935914,61.7912293 Z" id="Path"></path>
            <path d="M45.7046508,15.8210754 L45.7046508,19.7273254 C45.7046508,26.2016297 50.9490967,31.4460754 57.4234008,31.4460754 C63.885498,31.4460754 69.1429139,26.1894227 69.1429139,19.7273254 L69.1429139,15.8210754 C70.2217102,15.8210754 71.0960389,14.9467469 71.0960389,13.8679504 C71.0960389,12.7891541 70.2217102,11.9148254 69.1429139,11.9148254 L65.2366639,11.9148254 C64.1578674,11.9148254 63.2835389,12.7891541 63.2835389,13.8679504 C63.2835389,14.9467469 64.1578674,15.8210754 65.2366639,15.8210754 L65.2366639,19.7273254 C65.2366639,24.0348816 61.7317199,27.5398254 57.4234008,27.5398254 C53.1089783,27.5398254 49.6109008,24.0432738 49.6109008,19.7273254 L49.6109008,15.8210754 C50.6896973,15.8210754 51.5640258,14.9467469 51.5640258,13.8679504 C51.5640258,12.7891541 50.6896973,11.9148254 49.6109008,11.9148254 L45.7046508,11.9148254 C44.6258545,11.9148254 43.7515258,12.7891541 43.7515258,13.8679504 C43.7515258,14.9467469 44.6258545,15.8210754 45.7046508,15.8210754 L45.7046508,15.8210754 Z" id="Path"></path>
            <path d="M22.6989746,92.3713684 C23.0804443,92.7520752 23.5794066,92.9420471 24.079132,92.9420471 C24.5788574,92.9420471 25.0785828,92.7513123 25.4600525,92.3706055 L31.4575195,86.3731385 C33.4114074,84.4207764 34.3521117,81.7466736 34.0805055,79.044342 L36.2312316,76.9676209 C37.9379273,75.3227234 40.1817322,74.4163514 42.5483703,74.4163514 L68.2640076,74.4163514 C72.8706359,74.4163514 77.2247314,72.6470947 80.5236816,69.4343566 C80.5725098,69.3870545 80.6182861,69.3374633 80.6617736,69.2848205 L98.1590271,48.273468 C100.939179,44.983673 100.523377,40.0444031 97.2305297,37.2612 C93.9590453,34.5039367 89.0563965,34.9006652 86.2678527,38.1355285 L84.3780518,40.0901795 L84.3780518,1.953125 C84.3780518,0.874328516 83.5029602,-2.84217094e-14 82.4249268,-2.84217094e-14 L32.2273254,-2.84217094e-14 C31.149292,-2.84217094e-14 30.2742004,0.874328516 30.2742004,1.953125 L30.2742004,45.7130432 C22.7104187,47.3007203 16.7114258,51.9958496 13.4803771,58.8592529 C10.9321594,58.7272645 8.44726562,59.6641541 6.60324102,61.5104676 L0.57525625,67.5086975 C0.207519531,67.8749084 0.000762939453,68.3723449 -3.08213737e-14,68.8911437 C-0.000762939453,69.4107055 0.20599375,69.9081422 0.572967578,70.275116 L22.6989746,92.3713684 Z M80.4718018,3.90625 L80.4718018,44.1291809 L74.8191834,49.9732971 C73.3642578,48.1857301 71.1471559,47.0718383 68.7522889,47.0718383 L46.1067199,47.0718383 C45.9815979,47.0718383 45.8457947,47.0428467 45.7092285,46.987915 C42.666626,45.7473754 39.4447326,45.1187133 36.1343383,45.1187133 C35.4804992,45.1187133 34.828949,45.1423645 34.1812133,45.1850891 L34.1812133,3.90625 L80.4718018,3.90625 Z M32.5073242,49.282074 C36.4585877,48.7106324 40.4098512,49.0463258 44.2420959,50.6080627 C44.8509217,50.8537293 45.4788207,50.9788514 46.1067199,50.9788514 L68.7522889,50.9788514 C70.8702088,50.9788514 72.6585389,52.7061463 72.6585389,54.8851014 C72.6585389,57.0388793 70.9060668,58.7913514 68.7522889,58.7913514 L51.7593383,58.7913514 C50.6813049,58.7913514 49.8062133,59.6656799 49.8062133,60.7444764 C49.8062133,61.8232727 50.6813049,62.6976014 51.7593383,62.6976014 L68.7522889,62.6976014 C73.0606078,62.6976014 76.5647889,59.1926574 76.5647889,54.8851014 C76.5647889,54.5402527 76.5396117,54.197693 76.4953613,53.8597107 C76.9027711,53.4423828 88.7084961,41.2322998 89.1174316,40.8088684 C89.1471863,40.7775879 89.176941,40.7455445 89.2044066,40.7127381 C90.5960082,39.0693664 93.0671691,38.8618469 94.7113037,40.2473449 C96.3569641,41.6381836 96.5652465,44.1078186 95.1660156,45.7633973 L77.7275086,66.7045594 C75.1708984,69.1596984 71.8139648,70.5101014 68.2640076,70.5101014 L42.5483703,70.5101014 C39.164734,70.5101014 35.9588623,71.8040467 33.518982,74.1561891 L32.6576232,74.987793 C32.3127746,74.45755 31.9114686,73.9624023 31.4582824,73.5099793 L19.4618225,61.5135193 C18.8209533,60.8726502 18.0938721,60.3401184 17.3072814,59.9197387 C20.2911377,54.0344238 25.6210328,50.2830506 32.5073242,49.282074 L32.5073242,49.282074 Z M9.36279297,64.2753602 C11.4151,62.2200012 14.6949768,62.2703553 16.6992188,64.276123 L28.6972047,76.2733459 C30.7083129,78.2806396 30.7441711,81.5643311 28.6964416,83.6097717 L24.0776063,88.2278441 L4.71954336,68.8957215 L9.36279297,64.2753602 Z" id="Shape" fill-rule="nonzero"></path>
        </g>
    </g>
</svg>