<?xml version="1.0" encoding="UTF-8"?>
<svg width="100px" height="100px" viewBox="0 0 100 100" version="1.1" xmlns="http://www.w3.org/2000/svg" xmlns:xlink="http://www.w3.org/1999/xlink">
    <!-- Generator: Sketch 53.2 (72643) - https://sketchapp.com -->
    <title>payment_methods</title>
    <desc>Created with Sketch.</desc>
    <g id="payment_methods" stroke="none" stroke-width="1" fill="none" fill-rule="evenodd">
        <g id="payment-method" fill="#FFFFFF">
            <path d="M91.9288635,58.6875916 L47.782898,58.6875916 C43.3319092,58.6875916 39.7117615,62.3085021 39.7117615,66.7587281 L39.7117615,91.7785645 C39.7117615,96.2287902 43.3319092,99.849701 47.782898,99.849701 L81.8801879,99.849701 C82.7003479,99.849701 83.3656311,99.1844178 83.3656311,98.3642578 C83.3656311,97.5440979 82.7003479,96.8795777 81.8801879,96.8795777 L47.782898,96.8795777 C44.9699402,96.8795777 42.6818848,94.5915223 42.6818848,91.7785645 L42.6818848,78.2409668 L97.0298768,78.2409668 L97.0298768,91.7785645 C97.0298768,94.5915223 94.7410584,96.8795777 91.9288635,96.8795777 L86.8309021,96.8795777 C86.0107422,96.8795777 85.3462219,97.5440979 85.3462219,98.3642578 C85.3462219,99.1844178 86.0107422,99.849701 86.8309021,99.849701 L91.9288635,99.849701 C96.3790895,99.849701 100,96.2287902 100,91.7785645 L100,66.7587281 C100,62.3085021 96.3790895,58.6875916 91.9288635,58.6875916 L91.9288635,58.6875916 Z M47.782898,61.6577148 L91.9288635,61.6577148 C94.7410584,61.6577148 97.0298768,63.9457703 97.0298768,66.7587281 L97.0298768,67.2828674 L42.6818848,67.2828674 L42.6818848,66.7587281 C42.6818848,63.9457703 44.9699402,61.6577148 47.782898,61.6577148 Z M42.6818848,75.2708436 L42.6818848,70.2537537 L97.0298768,70.2537537 L97.0298768,75.2708436 L42.6818848,75.2708436 Z" id="Shape" fill-rule="nonzero"></path>
            <path d="M65.3343201,82.3043824 C64.5141602,82.3043824 63.848877,82.9696656 63.848877,83.7898254 C63.848877,84.6099854 64.5141602,85.2745057 65.3343201,85.2745057 L74.3774414,85.2745057 C75.1983643,85.2745057 75.8628846,84.6099854 75.8628846,83.7898254 C75.8628846,82.9696656 75.1983643,82.3043824 74.3774414,82.3043824 L65.3343201,82.3043824 Z" id="Path"></path>
            <path d="M90.2679443,83.7898254 C90.2679443,82.9696656 89.6026611,82.3043824 88.7825012,82.3043824 L79.7393799,82.3043824 C78.918457,82.3043824 78.2539367,82.9696656 78.2539367,83.7898254 C78.2539367,84.6099854 78.918457,85.2745057 79.7393799,85.2745057 L88.7825012,85.2745057 C89.6026611,85.2745057 90.2679443,84.6099854 90.2679443,83.7898254 L90.2679443,83.7898254 Z" id="Path"></path>
            <path d="M50.9292602,82.3043824 C50.1091004,82.3043824 49.4438172,82.9696656 49.4438172,83.7898254 C49.4438172,84.6099854 50.1091004,85.2745057 50.9292602,85.2745057 L59.9723816,85.2745057 C60.7933045,85.2745057 61.4578246,84.6099854 61.4578246,83.7898254 C61.4578246,82.9696656 60.7933045,82.3043824 59.9723816,82.3043824 L50.9292602,82.3043824 Z" id="Path"></path>
            <path d="M72.8622437,44.4404602 C73.6824035,44.4404602 74.3476867,43.775177 74.3476867,42.9550172 L74.3476867,1.48544316 C74.3476867,0.665283203 73.6824035,0 72.8622437,0 L1.48544316,0 C0.665283203,0 -2.84217094e-14,0.665283203 -2.84217094e-14,1.48544316 L-2.84217094e-14,12.2962951 C-2.84217094e-14,13.1164551 0.665283203,13.7817383 1.48544316,13.7817383 C2.30560312,13.7817383 2.97012324,13.1164551 2.97012324,12.2962951 L2.97012324,2.97012324 L71.3768006,2.97012324 L71.3768006,41.469574 L2.97012324,41.469574 L2.97012324,17.2477723 C2.97012324,16.4276123 2.30560312,15.7623291 1.48544316,15.7623291 C0.665283203,15.7623291 -2.82482371e-14,16.4276123 -2.82482371e-14,17.2477723 L-2.82482371e-14,42.9550172 C-2.82482371e-14,43.775177 0.665283203,44.4404602 1.48544316,44.4404602 L72.8622437,44.4404602 Z" id="Path"></path>
            <path d="M54.1770936,38.2041932 L58.9607238,38.2041932 C59.7808838,38.2041932 60.4454041,37.53891 60.4454041,36.71875 C60.4454041,33.3114625 63.217926,30.5389404 66.6252137,30.5389404 C67.4461365,30.5389404 68.1106566,29.8736572 68.1106566,29.0534973 L68.1106566,15.3869629 C68.1106566,14.5668029 67.4461365,13.9015197 66.6252137,13.9015197 C63.217926,13.9015197 60.4454041,11.1289979 60.4454041,7.72171016 C60.4454041,6.90155039 59.7808838,6.23626719 58.9607238,6.23626719 L15.3869629,6.23626719 C14.5668029,6.23626719 13.9015197,6.90155039 13.9015197,7.72171016 C13.9015197,11.1289979 11.1297607,13.9015197 7.72171016,13.9015197 C6.90155039,13.9015197 6.23626719,14.5668029 6.23626719,15.3869629 L6.23626719,29.0534973 C6.23626719,29.8736572 6.90155039,30.5389404 7.72171016,30.5389404 C11.1289979,30.5389404 13.9015197,33.3114625 13.9015197,36.71875 C13.9015197,37.53891 14.5668029,38.2041932 15.3869629,38.2041932 L49.2263793,38.2041932 C50.0465393,38.2041932 50.7118225,37.53891 50.7118225,36.71875 C50.7118225,35.89859 50.0465393,35.2333068 49.2263793,35.2333068 L16.7518615,35.2333068 C16.1193848,31.375885 13.0645752,28.3210754 9.20639043,27.6885986 L9.20639043,16.7518615 C13.0645752,16.1193848 16.1193848,13.0645752 16.7518615,9.20639043 L57.5958252,9.20639043 C58.228302,13.0645752 61.2823486,16.1193848 65.1405334,16.7518615 L65.1405334,27.6893615 C61.2823486,28.3218383 58.228302,31.375885 57.5958252,35.2340699 L54.1770936,35.2340699 C53.3569336,35.2340699 52.6924133,35.89859 52.6924133,36.71875 C52.6924133,37.53891 53.3569336,38.2041932 54.1770936,38.2041932 L54.1770936,38.2041932 Z" id="Path"></path>
            <path d="M27.9647828,22.2198486 C27.9647828,27.2979736 32.0960998,31.4285277 37.1734619,31.4285277 C42.2515869,31.4285277 46.382141,27.2979736 46.382141,22.2198486 C46.382141,17.1424865 42.2515869,13.0119324 37.1734619,13.0119324 C32.0960998,13.0119324 27.9647828,17.1424865 27.9647828,22.2198486 Z M43.4120178,22.2198486 C43.4120178,25.6599426 40.6135559,28.4584045 37.1734619,28.4584045 C33.7341309,28.4584045 30.9356689,25.6599426 30.9356689,22.2198486 C30.9356689,18.7805176 33.7341309,15.9820557 37.1734619,15.9820557 C40.6135559,15.9820557 43.4120178,18.7805176 43.4120178,22.2198486 Z" id="Shape" fill-rule="nonzero"></path>
            <path d="M58.1787109,23.7052918 C58.9996338,23.7052918 59.6641541,23.0407715 59.6641541,22.2198486 C59.6641541,21.3996887 58.9996338,20.7351684 58.1787109,20.7351684 L53.4263611,20.7351684 C52.6062012,20.7351684 51.9416809,21.3996887 51.9416809,22.2198486 C51.9416809,23.0407715 52.6062012,23.7052918 53.4263611,23.7052918 L58.1787109,23.7052918 Z" id="Path"></path>
            <path d="M16.1682129,20.7351684 C15.3480529,20.7351684 14.6835328,21.3996887 14.6835328,22.2198486 C14.6835328,23.0407715 15.3480529,23.7052918 16.1682129,23.7052918 L20.9205627,23.7052918 C21.7407227,23.7052918 22.4060059,23.0407715 22.4060059,22.2198486 C22.4060059,21.3996887 21.7407227,20.7351684 20.9205627,20.7351684 L16.1682129,20.7351684 Z" id="Path"></path>
            <path d="M76.081848,18.408966 C85.4591369,26.2008668 90.8378602,37.6548768 90.8378602,49.8344422 C90.8378602,50.3150939 90.826416,50.7972717 90.8096312,51.2794494 L87.3046875,47.6348877 C86.7362977,47.0436096 85.7963563,47.025299 85.2043152,47.5936891 C84.6138,48.1620789 84.5947266,49.1020203 85.1638793,49.6932984 L90.9103395,55.6694031 C91.1590576,55.9280395 91.493225,56.085968 91.8487549,56.1172484 C91.8609619,56.1195373 91.8731689,56.1218262 91.885376,56.123352 C91.9418336,56.1302186 91.998291,56.1332703 92.0539855,56.1332703 C92.5880432,56.1332703 93.067932,55.8448791 93.3296203,55.4039002 L98.9860535,49.9633789 C99.5773316,49.3949891 99.5956422,48.4542848 99.0272521,47.8637695 C98.4588623,47.2724914 97.5189209,47.2541809 96.9268799,47.8225707 L93.7942504,50.8361816 C93.8018799,50.5020141 93.8079834,50.1678467 93.8079834,49.8344422 C93.8079834,36.7691039 88.0393982,24.482727 77.9800414,16.1247254 C77.3498535,15.6005859 76.4129639,15.686798 75.8888244,16.317749 C75.3646852,16.9487 75.4516602,17.8848266 76.081848,18.408966 L76.081848,18.408966 Z" id="Path"></path>
            <path d="M36.1488342,88.2637023 C28.3218383,85.4415895 21.6148377,80.355835 16.7533875,73.5549926 C12.4282836,67.503357 9.87930293,60.5003357 9.29336543,53.1318664 L12.9264832,56.3224793 C13.5421754,56.8634033 14.4805908,56.8023682 15.0222777,56.186676 C15.563202,55.5702209 15.5021668,54.6318055 14.8864746,54.0901184 L8.65707402,48.6190797 C8.04061895,48.0781555 7.10220332,48.1391906 6.5612793,48.7548828 L1.09024043,54.9842834 C0.548553516,55.6007385 0.609588672,56.5391541 1.22604375,57.0800781 C1.50756836,57.3280334 1.85699453,57.4493408 2.20489492,57.4493408 C2.61764531,57.4493408 3.02810664,57.2784424 3.32183828,56.944275 L6.3438416,53.503418 C6.99234004,61.3594055 9.7221375,68.8255311 14.3371582,75.2822875 C19.5503234,82.5759887 26.7448426,88.0310059 35.1417541,91.0575867 C35.308075,91.117859 35.4782105,91.1460877 35.6452941,91.1460877 C36.253357,91.1460877 36.8240355,90.7691955 37.0422363,90.1641846 C37.3207092,89.3928527 36.9209289,88.5414123 36.1488342,88.2637023 L36.1488342,88.2637023 Z" id="Path"></path>
            <path d="M66.6259766,9.20562734 C65.9774781,9.20562734 65.3953553,8.77304082 65.2046203,8.15277109 C65.0306701,7.58666992 65.2259826,6.94885254 65.6829834,6.57424922 C66.708374,5.73349004 68.2968141,6.62689219 68.094635,7.93991094 C67.9840088,8.65707402 67.3545838,9.20562734 66.6259766,9.20562734 L66.6259766,9.20562734 Z" id="Path"></path>
            <path d="M66.6259766,38.2041932 C66.0171508,38.2041932 65.460968,37.8196717 65.2412414,37.2528076 C65.007782,36.6523742 65.2023316,35.9519959 65.7058715,35.5522156 C66.7617797,34.7152711 68.3540344,35.684967 68.081665,37.0094299 C67.9412842,37.6945496 67.3278809,38.2041932 66.6259766,38.2041932 L66.6259766,38.2041932 Z" id="Path"></path>
            <path d="M7.72171016,9.20562734 C7.07168574,9.20562734 6.49261484,8.76998906 6.30111699,8.15277109 C6.11724844,7.55844121 6.34460449,6.88323984 6.84967031,6.52008047 C7.92160039,5.74951172 9.43527227,6.71234141 9.17892461,8.01162715 C9.04312129,8.69827266 8.41903691,9.20562734 7.72171016,9.20562734 Z" id="Path"></path>
            <path d="M7.72171016,68.2041932 C7.07321172,68.2041932 6.49108887,67.7677918 6.30111699,67.1498107 C6.10733027,66.5188598 6.3728332,65.8161926 6.92825313,65.4637146 C8.0368043,64.7602844 9.48486328,65.8131408 9.16061406,67.0834352 C8.99429316,67.7334594 8.39309688,68.2041932 7.72171016,68.2041932 Z" id="Path"></path>
        </g>
    </g>
</svg>