<?xml version="1.0" encoding="UTF-8"?>
<svg width="100px" height="87px" viewBox="0 0 100 87" version="1.1" xmlns="http://www.w3.org/2000/svg" xmlns:xlink="http://www.w3.org/1999/xlink">
    <!-- Generator: Sketch 53.2 (72643) - https://sketchapp.com -->
    <title>quick_delivery</title>
    <desc>Created with Sketch.</desc>
    <g id="quick_delivery" stroke="none" stroke-width="1" fill="none" fill-rule="evenodd">
        <g id="present" transform="translate(0.000000, -0.000000)" fill="#FFFFFF">
            <path d="M21.802708,65.1162791 C16.0318839,65.1162791 11.3372093,69.8109536 11.3372093,75.5817778 C11.3372093,81.3518371 16.0318839,86.0465116 21.802708,86.0465116 C27.5735321,86.0465116 32.2674419,81.3518371 32.2674419,75.5817778 C32.2674419,69.8109536 27.5727673,65.1162791 21.802708,65.1162791 L21.802708,65.1162791 Z M21.802708,83.0689345 C17.6740257,83.0689345 14.3147865,79.7096953 14.3147865,75.5817778 C14.3147865,71.4530954 17.6740257,68.0938562 21.802708,68.0938562 C25.9313903,68.0938562 29.2898647,71.4530954 29.2898647,75.5817778 C29.2898647,79.7096953 25.9313903,83.0689345 21.802708,83.0689345 L21.802708,83.0689345 Z" id="Shape" fill-rule="nonzero"></path>
            <path d="M21.6573614,70.0581395 C18.6919915,70.0581395 16.2790698,72.4704645 16.2790698,75.4360465 C16.2790698,78.4016288 18.6919915,80.8139535 21.6573614,80.8139535 C24.621962,80.8139535 27.0348837,78.4008591 27.0348837,75.4360465 C27.0341143,72.4704645 24.621962,70.0581395 21.6573614,70.0581395 Z M21.6573614,77.8175922 C20.3431808,77.8175922 19.2752168,76.7495517 19.2752168,75.4360465 C19.2752168,74.1225413 20.3431808,73.0537314 21.6573614,73.0537314 C22.9707726,73.0537314 24.0387367,74.1225413 24.0387367,75.4360465 C24.0387367,76.7495517 22.9707726,77.8175922 21.6573614,77.8175922 Z" id="Shape" fill-rule="nonzero"></path>
            <path d="M99.9000549,42.8288826 L93.1755066,25.4300774 C91.6061402,21.3695185 87.6220703,18.641414 83.2611084,18.641414 L57.208252,18.641414 C56.388092,18.641414 55.7235719,19.3045953 55.7235719,20.1231029 L55.7235719,54.1227639 L52.5650023,54.1227639 L52.5650023,27.0899346 C52.5650023,27.0823205 52.5657654,27.0747065 52.5657654,27.0670924 C52.5657654,27.0594785 52.5650023,27.0518644 52.5650023,27.0442504 L52.5650023,15.5051976 C52.5650023,14.6866901 51.9004822,14.0227472 51.0795594,14.0227472 L47.7951051,14.0227472 C49.0760803,12.5357284 49.8535156,10.6040507 49.8535156,8.49344336 C49.8535156,3.8100574 46.0357666,0 41.342926,0 C36.6500855,0 32.8323363,3.8100574 32.8323363,8.49344336 L32.8323363,9.78173615 C31.6841125,8.96855844 30.2825928,8.4881135 28.7704469,8.4881135 C27.2583008,8.4881135 25.8575439,8.96855844 24.7093201,9.78173615 L24.7093201,8.49344336 C24.7093201,3.8100574 20.8915711,0 16.1987305,0 C11.5058898,0 7.68814082,3.8100574 7.68814082,8.49344336 C7.68814082,10.6040507 8.46481328,12.5357284 9.74655156,14.0227472 L6.46209727,14.0227472 C5.6419373,14.0227472 4.9766541,14.6859287 4.9766541,15.5044363 L4.9766541,54.1227639 L1.48544316,54.1227639 C0.664520313,54.1227639 0,54.7859452 0,55.6044528 L0,75.5531946 C0,76.3717022 0.664520312,77.0348837 1.48544316,77.0348837 L6.99081426,77.0348837 C7.81097422,77.0348837 8.47549434,76.3717022 8.47549434,75.5531946 C8.47549434,68.2650513 14.4165039,62.3360112 21.7193604,62.3360112 C29.0214539,62.3360112 34.9624633,68.2650513 34.9624633,75.5531946 C34.9624633,76.3717022 35.6269836,77.0348837 36.4471436,77.0348837 L62.8318787,77.0348837 C63.6528016,77.0348837 64.3173219,76.3717022 64.3173219,75.5531946 C64.3173219,68.2650513 70.2583313,62.3360112 77.5604248,62.3360112 C80.4039002,62.3360112 83.114624,63.2222834 85.3973389,64.8973686 C86.0580445,65.382382 86.9880676,65.2415226 87.4732971,64.5813867 C87.9592895,63.9220122 87.8181457,62.9946242 87.1566773,62.5096108 C84.3605041,60.45687 81.0417176,59.3718717 77.5604248,59.3718717 C69.1200256,59.3718717 62.1665955,65.8399848 61.4143371,74.0707442 L58.6936951,74.0707442 L58.6936951,21.6055533 L83.2611084,21.6055533 C86.402893,21.6055533 89.2738342,23.5714943 90.4045105,26.4968021 L97.0298768,43.6382534 L97.0298768,74.0707442 L93.7072754,74.0707442 C93.4486389,71.2170083 92.4438477,68.5064159 90.7623291,66.1574895 C90.285492,65.4912626 89.3577576,65.3374592 88.6901855,65.8125743 C88.0226135,66.2884507 87.8684998,67.214316 88.3453369,67.8805431 C89.9536133,70.1274415 90.8035277,72.7809287 90.8035277,75.5524333 C90.8035277,76.3709409 91.4688109,77.0348837 92.2889709,77.0348837 L98.5145568,77.0348837 C99.3354797,77.0348837 100,76.3709409 100,75.5524333 L100,43.3618644 C100,43.1798892 99.9664307,42.9994367 99.9000549,42.8288826 Z M35.8024598,28.5495429 L49.5948791,28.5495429 L49.5948791,54.1227639 L35.8024598,54.1227639 L35.8024598,28.5495429 Z M49.5948791,25.584642 L35.8024598,25.584642 L35.8024598,16.9868867 L49.5948791,16.9868867 L49.5948791,25.584642 Z M35.8024598,8.49344336 C35.8024598,5.44478832 38.2881164,2.96413933 41.342926,2.96413933 C44.3977355,2.96413933 46.8833924,5.44478832 46.8833924,8.49344336 C46.8833924,11.5420984 44.3977355,14.0227472 41.342926,14.0227472 L35.8024598,14.0227472 L35.8024598,8.49344336 Z M28.7712098,11.4514915 C30.4862977,11.4514915 31.9526672,12.519739 32.5469971,14.0227472 L24.9946594,14.0227472 C25.5897521,12.519739 27.0561219,11.4514915 28.7712098,11.4514915 Z M10.6582641,8.49344336 C10.6582641,5.44478832 13.1439209,2.96413933 16.1987305,2.96413933 C19.25354,2.96413933 21.7391969,5.44478832 21.7391969,8.49344336 L21.7391969,14.0227472 L16.1987305,14.0227472 C13.1439209,14.0227472 10.6582641,11.5420984 10.6582641,8.49344336 Z M21.7391969,16.9868867 L21.7391969,25.584642 L7.94677734,25.584642 L7.94677734,16.9868867 L21.7391969,16.9868867 Z M7.94677734,28.5495429 L21.7391969,28.5495429 L21.7391969,36.5442676 C21.7391969,37.3635366 22.4044801,38.0267181 23.2246398,38.0267181 C24.0447998,38.0267181 24.710083,37.3635366 24.710083,36.5442676 L24.710083,16.9868867 L32.8323363,16.9868867 L32.8323363,54.1227639 L24.710083,54.1227639 L24.710083,41.6418565 C24.710083,40.8225875 24.0447998,40.159406 23.2246398,40.159406 C22.4044801,40.159406 21.7391969,40.8225875 21.7391969,41.6418565 L21.7391969,54.1227639 L7.94677734,54.1227639 L7.94677734,28.5495429 Z M21.7193604,59.3718717 C13.2797242,59.3718717 6.32476797,65.8399848 5.57327266,74.0707442 L2.97012324,74.0707442 L2.97012324,57.0869033 L55.7235719,57.0869033 L55.7235719,74.0707442 L37.8646852,74.0707442 C37.1131896,65.8399848 30.1589965,59.3718717 21.7193604,59.3718717 Z" id="Shape" fill-rule="nonzero"></path>
            <path d="M93.3432564,44.1250402 C93.6211272,43.7221137 93.6816003,43.2104729 93.5047736,42.75509 L87.6105461,27.5799639 C86.943044,25.8633449 85.2505589,24.7093023 83.3980875,24.7093023 L63.409002,24.7093023 C62.5861068,24.7093023 61.9186047,25.3722305 61.9186047,26.1894872 L61.9186047,43.2880173 C61.9186047,44.105274 62.5861068,44.7674419 63.409002,44.7674419 L92.1146545,44.7674419 C92.6060952,44.7674419 93.0653856,44.5272066 93.3432564,44.1250402 Z M64.8986341,41.8078324 L64.8986341,27.668912 L83.3980875,27.668912 C84.0273153,27.668912 84.6029593,28.0619554 84.830308,28.6458187 L89.9429761,41.8078324 L64.8986341,41.8078324 Z" id="Shape" fill-rule="nonzero"></path>
            <path d="M77.6162791,65.1162791 C71.8456658,65.1162791 67.1511628,69.8109536 67.1511628,75.5817778 C67.1511628,81.3518371 71.8456658,86.0465116 77.6162791,86.0465116 C83.3868923,86.0465116 88.0813953,81.3518371 88.0813953,75.5817778 C88.0813953,69.8109536 83.3868923,65.1162791 77.6162791,65.1162791 L77.6162791,65.1162791 Z M77.6162791,83.0689345 C73.4877476,83.0689345 70.1293959,79.7096953 70.1293959,75.5817778 C70.1293959,71.4530954 73.4877476,68.0938562 77.6162791,68.0938562 C81.7448105,68.0938562 85.103927,71.4530954 85.103927,75.5817778 C85.1031622,79.7096953 81.7448105,83.0689345 77.6162791,83.0689345 L77.6162791,83.0689345 Z" id="Shape" fill-rule="nonzero"></path>
            <path d="M77.4709302,70.0581395 C74.5053482,70.0581395 72.0930233,72.4704645 72.0930233,75.4360465 C72.0930233,78.4016288 74.5053482,80.8139535 77.4709302,80.8139535 C80.4365123,80.8139535 82.8488372,78.4008591 82.8488372,75.4360465 C82.8488372,72.4704645 80.4365123,70.0581395 77.4709302,70.0581395 Z M77.4709302,77.8175922 C76.1574251,77.8175922 75.0886151,76.7495517 75.0886151,75.4360465 C75.0886151,74.1225413 76.1574251,73.0537314 77.4709302,73.0537314 C78.7844354,73.0537314 79.8532453,74.1225413 79.8532453,75.4360465 C79.8532453,76.7495517 78.7844354,77.8175922 77.4709302,77.8175922 Z" id="Shape" fill-rule="nonzero"></path>
            <path d="M51.423983,61.3372093 L41.0178777,61.3372093 C40.1986493,61.3372093 39.5348837,61.9876015 39.5348837,62.7903243 C39.5348837,63.5930472 40.1986493,64.244186 41.0178777,64.244186 L51.423983,64.244186 C52.2432114,64.244186 52.9069767,63.5930472 52.9069767,62.7903243 C52.9069767,61.9876015 52.2432114,61.3372093 51.423983,61.3372093 Z" id="Path"></path>
            <path d="M51.423983,66.5697674 L41.0178777,66.5697674 C40.1986493,66.5697674 39.5348837,67.2201597 39.5348837,68.0228826 C39.5348837,68.8256053 40.1986493,69.4767442 41.0178777,69.4767442 L51.423983,69.4767442 C52.2432114,69.4767442 52.9069767,68.8256053 52.9069767,68.0228826 C52.9069767,67.2201597 52.2432114,66.5697674 51.423983,66.5697674 Z" id="Path"></path>
            <path d="M63.4124702,47.6744186 C62.5868929,47.6744186 61.9186047,48.3255575 61.9186047,49.1282803 C61.9186047,49.9310032 62.5868929,50.5813953 63.4124702,50.5813953 L69.7278317,50.5813953 C70.552642,50.5813953 71.2209302,49.9310032 71.2209302,49.1282803 C71.2209302,48.3255575 70.552642,47.6744186 69.7278317,47.6744186 L63.4124702,47.6744186 Z" id="Path"></path>
        </g>
    </g>
</svg>