<?xml version="1.0" encoding="UTF-8"?>
<svg width="78px" height="78px" viewBox="0 0 78 78" version="1.1" xmlns="http://www.w3.org/2000/svg" xmlns:xlink="http://www.w3.org/1999/xlink">
    <!-- Generator: Sketch 53.2 (72643) - https://sketchapp.com -->
    <title>special_orders</title>
    <desc>Created with Sketch.</desc>
    <g id="special_orders" stroke="none" stroke-width="1" fill="none" fill-rule="evenodd">
        <path d="M72.8235294,26 L56,26 C55.2853235,26 54.7058824,26.5794412 54.7058824,27.2941176 L54.7058824,32.4705882 C54.7058824,33.1852647 55.2853235,33.7647059 56,33.7647059 L59.8823529,33.7647059 C61.3118676,33.7647059 62.4705882,34.9234265 62.4705882,36.3529412 C62.4705882,37.7824559 61.3118676,38.9411765 59.8823529,38.9411765 L56,38.9411765 C55.2853235,38.9411765 54.7058824,39.5206176 54.7058824,40.2352941 L54.7058824,46.7058824 L35.2941176,46.7058824 C34.5794412,46.7058824 34,47.2853235 34,48 L34,64.8235294 C34,67.6823971 36.3176029,70 39.1764706,70 L72.8235294,70 C75.6823971,70 78,67.6823971 78,64.8235294 L78,31.1764706 C78,28.3176029 75.6823971,26 72.8235294,26 Z M54.7058824,67.4117647 L39.1764706,67.4117647 C37.7469559,67.4117647 36.5882353,66.2530441 36.5882353,64.8235294 L36.5882353,49.2941176 L54.7058824,49.2941176 L54.7058824,51.8823529 L52.1176471,51.8823529 C49.2587794,51.8823529 46.9411765,54.1999559 46.9411765,57.0588235 C46.9411765,59.9176912 49.2587794,62.2352941 52.1176471,62.2352941 L54.7058824,62.2352941 L54.7058824,67.4117647 Z M75.4117647,64.8235294 C75.4117647,66.2530441 74.2530441,67.4117647 72.8235294,67.4117647 L57.2941176,67.4117647 L57.2941176,60.9411765 C57.2941176,60.2265 56.7146765,59.6470588 56,59.6470588 L52.1176471,59.6470588 C50.6881324,59.6470588 49.5294118,58.4883382 49.5294118,57.0588235 C49.5294118,55.6293088 50.6881324,54.4705882 52.1176471,54.4705882 L56,54.4705882 C56.7146765,54.4705882 57.2941176,53.8911471 57.2941176,53.1764706 L57.2941176,49.2941176 L61.1764706,49.2941176 L61.1764706,51.8823529 C61.1764706,54.7412206 63.4940735,57.0588235 66.3529412,57.0588235 C69.2118088,57.0588235 71.5294118,54.7412206 71.5294118,51.8823529 L71.5294118,49.2941176 L75.4117647,49.2941176 L75.4117647,64.8235294 Z M75.4117647,46.7058824 L70.2352941,46.7058824 C69.5206176,46.7058824 68.9411765,47.2853235 68.9411765,48 L68.9411765,51.8823529 C68.9411765,53.3118676 67.7824559,54.4705882 66.3529412,54.4705882 C64.9234265,54.4705882 63.7647059,53.3118676 63.7647059,51.8823529 L63.7647059,48 C63.7647059,47.2853235 63.1852647,46.7058824 62.4705882,46.7058824 L57.2941176,46.7058824 L57.2941176,41.5294118 L59.8823529,41.5294118 C62.7412206,41.5294118 65.0588235,39.2118088 65.0588235,36.3529412 C65.0588235,33.4940735 62.7412206,31.1764706 59.8823529,31.1764706 L57.2941176,31.1764706 L57.2941176,28.5882353 L72.8235294,28.5882353 C74.2530441,28.5882353 75.4117647,29.7469559 75.4117647,31.1764706 L75.4117647,46.7058824 Z" id="Shape" fill="#FFFFFF" fill-rule="nonzero"></path>
        <path d="M56.8334073,5.20740199 L54.2501109,5.20740199 L54.2501109,1.30779852 C54.2501109,0.589946518 53.6717755,0.00793070091 52.9584628,0.00793070091 L36.1670365,0.00793070091 C33.3136242,0.00793070091 31.0004438,2.33583149 31.0004438,5.20740199 L31.0004438,19.7659216 L25.6568953,22.3656572 C24.8533286,21.2974909 23.8558533,20.3922954 22.717104,19.6983285 C27.8192758,17.1255651 29.8830066,10.8774254 27.326512,5.74278505 C24.7700173,0.608144668 18.5613874,-1.46871914 13.4592157,1.10404424 C8.35704394,3.67680763 6.29331306,9.92494728 8.84980772,15.0595877 C9.7313576,16.8300076 11.0967912,18.3103946 12.7856212,19.3265663 C10.0820401,20.6534063 8.08531345,23.0974828 7.31419949,26.0234853 L2.16827316,42.3303271 C0.712424204,46.9362462 1.00853455,51.9220518 2.99880293,56.3208045 C5.10967897,60.9704317 5.01086788,66.3325489 2.73014011,70.900122 L0.136510574,76.1190913 C-0.18236507,76.761226 0.0764489333,77.5419591 0.714523133,77.8628639 C0.894062229,77.9530423 1.09184586,78 1.29253569,78 L15.5006656,78 C16.2139783,78 16.7923138,77.4179842 16.7923138,76.7001322 C16.7961888,74.2875775 15.464338,72.0737401 13.3384466,70.958616 L13.9558544,69.7185421 C15.8255152,65.9359267 16.4338814,61.6475003 15.6905379,57.4893856 L14.732135,52.1859249 C14.6094284,51.501382 15.0615053,50.8462487 15.7417195,50.7227612 C15.8143747,50.7096001 15.8879986,50.7029382 15.961784,50.7027757 C16.5662754,50.7021258 17.0848721,51.1364441 17.1940164,51.7348708 L18.9480746,61.4474832 C19.2323987,63.0250352 19.3756102,64.6251725 19.3756102,66.228397 L19.3756102,76.7001322 C19.3756102,77.4179842 19.9539456,78 20.6672583,78 L34.8753883,78 C35.588701,78 36.1670365,77.4179842 36.1670365,76.7001322 C36.1670365,76.4473079 36.152344,76.1946461 36.1231204,75.9436091 C35.9009569,73.9871456 34.70037,72.2807441 32.9404993,71.4200691 C31.4996658,70.6810942 29.8305334,70.5320969 28.282816,71.0041114 L29.1430537,66.6781513 C29.5189233,64.7842439 29.7083112,62.8575148 29.7087956,60.9262362 L29.7087956,49.2911193 L28.2001505,31.8845893 L37.1628972,27.5807269 C38.8191131,26.8394773 39.9229879,25.2269913 40.0213146,23.4055515 L52.9584628,23.4055515 C53.6717755,23.4055515 54.2501109,22.8235357 54.2501109,22.1056837 L54.2501109,15.6063446 L56.8334073,15.6063446 C59.6868196,15.6063446 62,13.2784438 62,10.4068733 C62,7.53530277 59.6868196,5.20740199 56.8334073,5.20740199 Z M10.3340729,10.4068733 C10.3340729,6.09943628 13.8037628,2.60766634 18.083962,2.60766634 C22.3641611,2.60766634 25.8338511,6.09943628 25.8338511,10.4068733 C25.8338511,14.7143103 22.3641611,18.2060802 18.083962,18.2060802 C13.8057003,18.2018556 10.3384322,14.7125229 10.3340729,10.4068733 Z M28.2815243,73.8170253 C29.3571444,73.2026753 30.6676829,73.1739157 31.7689744,73.7403331 C32.4746987,74.0844732 33.0325293,74.6741257 33.3396186,75.4002644 L21.9589065,75.4002644 L21.9589065,66.228397 C21.9587451,64.4690259 21.8014869,62.7132295 21.4887466,60.9821305 L19.7346884,51.270818 C19.3739956,49.1712065 17.3901855,47.7634496 15.3040122,48.1266002 C13.2176775,48.4895883 11.8188225,50.4860228 12.1796767,52.5854718 C12.1833902,52.6074071 12.1874266,52.6293423 12.1916245,52.6512776 L13.1513191,57.9547383 C13.7943984,61.5592718 13.2662757,65.2764063 11.6452573,68.5551604 L10.3910669,71.0782038 C10.0678319,71.7182263 10.3213179,72.5007467 10.9572932,72.8260386 C11.0465784,72.8716965 11.1410301,72.9067929 11.2383881,72.9305155 C12.5109845,73.2322473 13.5454332,74.1616528 13.9870154,75.4002644 L3.3825839,75.4002644 L5.03847686,72.0622038 C7.66875692,66.7931896 7.78274487,60.6080935 5.34847242,55.2445139 C3.62250755,51.4316766 3.36563102,47.1094536 4.62773274,43.1167471 L9.79432545,26.7384126 C10.8663934,22.6963111 14.8561332,20.1718053 18.9404862,20.951401 C20.6285089,21.2916414 22.1521694,22.1969994 23.2636326,23.5199399 L15.6299919,27.2310625 C13.9768437,28.0403927 12.9247963,29.7251839 12.9175307,31.5752207 C12.9110725,34.2357252 15.0489117,36.3978929 17.6925926,36.4043922 C18.4138166,36.4061795 19.1259992,36.244021 19.7761826,35.929778 L25.7177642,33.0791678 L27.1256607,49.4029079 L27.1256607,60.9262362 C27.1242076,62.6860947 26.9511267,64.4415662 26.6090014,66.1673032 L25.2321045,73.0903992 C25.0916377,73.7942777 25.5445219,74.4794705 26.2439493,74.6208311 C26.5503929,74.6827373 26.8686227,74.6309051 27.1398688,74.4747585 L28.2815243,73.8170253 Z M36.106329,25.209768 L36.0675796,25.2266663 L18.6626204,33.5835165 C17.5600372,34.1119128 16.2404571,33.6407107 15.7154021,32.5309486 C15.5741281,32.2323039 15.5008271,31.9058746 15.5006656,31.5752207 C15.5038948,30.7226699 15.9882628,29.9459989 16.7496894,29.5721244 L34.2941466,21.0449915 C34.9917981,20.7315609 35.8003698,20.799154 36.4369909,21.2243733 C37.0799088,21.6398435 37.4657887,22.358508 37.4586846,23.1273798 C37.4583617,24.030138 36.9278172,24.8471049 36.106329,25.209768 Z M56.8334073,13.0066089 L52.9584628,13.0066089 C52.2451501,13.0066089 51.6668146,13.5886247 51.6668146,14.3064767 L51.6668146,20.8058158 L39.4594477,20.8058158 C38.3242504,18.6956429 35.8279788,17.735853 33.5837401,18.5466456 L33.5837401,5.20740199 C33.5837401,3.7715355 34.7402496,2.60766634 36.1670365,2.60766634 L51.6668146,2.60766634 L51.6668146,6.50726981 C51.6668146,7.22512181 52.2451501,7.80713763 52.9584628,7.80713763 L56.8334073,7.80713763 C58.2601942,7.80713763 59.4167036,8.97100678 59.4167036,10.4068733 C59.4167036,11.8427398 58.2601942,13.0066089 56.8334073,13.0066089 Z" id="Shape" fill="#FFFFFF" fill-rule="nonzero"></path>
        <path d="M52.1653043,33.9184217 L47.8925652,38.1095959 L47.8925652,31 L45.2975217,31 L45.2975217,40.6551011 L44,41.9278537 L42.7024783,40.6551011 L42.7024783,36.0910103 L40.1074348,36.0910103 L40.1074348,38.1095959 L35.8346957,33.9184217 L34,35.7180938 L43.0826521,44.6273619 C43.5893344,45.1242127 44.4106656,45.1242127 44.9173479,44.6273619 L54,35.7180938 L52.1653043,33.9184217 Z" id="Path" fill="#FFFFFF"></path>
        <rect id="Rectangle" fill="#FFFFFF" x="40" y="31" width="3" height="3"></rect>
        <rect id="Rectangle" fill="#FFFFFF" x="40" y="26" width="3" height="3"></rect>
        <rect id="Rectangle" fill="#FFFFFF" x="45" y="26" width="3" height="3"></rect>
    </g>
</svg>